KRSPY-parametric-NarrowBlackMinGrade-maxXOPQminYOPQmaxXTRA.ufo
<glyph name="comma" format="2">
  <advance width="265"/>
  <unicode hex="002C"/>
  <outline>
    <contour>
      <point x="153" y="-112" type="line"/>
      <point x="222" y="0" type="line"/>
      <point x="222" y="3" type="line"/>
      <point x="10" y="3" type="line"/>
      <point x="-18" y="1" type="line"/>
      <point x="-18" y="0" type="line"/>
      <point x="116" y="0" type="line"/>
      <point x="116" y="-112" type="line"/>
    </contour>
  </outline>
</glyph>
<glyph name="period" format="2">
  <advance width="337"/>
  <unicode hex="002E"/>
  <outline>
    <contour>
      <point x="240" y="0" type="line" identifier="1m237t4hyw"/>
      <point x="268" y="2" type="line" identifier="v7N4yg5XNk"/>
      <point x="268" y="5" type="line"/>
      <point x="122" y="5" type="line" identifier="zfocDyDTCM"/>
      <point x="94" y="3" type="line"/>
      <point x="94" y="0" type="line" identifier="S4rO5KuHiL"/>
    </contour>
  </outline>
</glyph>
<glyph name="two" format="2">
  <advance width="1163"/>
  <unicode hex="0032"/>
  <outline>
    <contour>
      <point x="75" y="0" type="line"/>
      <point x="1087" y="0" type="line" identifier="pzdvPTirLJ"/>
      <point x="1087" y="2" type="line"/>
      <point x="485" y="2" type="line"/>
      <point x="485" y="314" type="line"/>
      <point x="1075" y="1254" type="line" identifier="yyb1NCCI5w"/>
      <point x="1075" y="1600" type="line" identifier="5FogYRSgkk"/>
      <point x="80" y="1600" type="line" identifier="svlFvrau4c"/>
      <point x="80" y="1400" type="line" identifier="LQ9fBsTy9K"/>
      <point x="462" y="1400" type="line"/>
      <point x="462" y="1598" type="line"/>
      <point x="665" y="1598" type="line"/>
      <point x="665" y="1279" type="line"/>
      <point x="75" y="350" type="line" identifier="teVKnpBcVb"/>
    </contour>
  </outline>
</glyph>
<glyph name="three" format="2">
  <advance width="1086"/>
  <unicode hex="0033"/>
  <outline>
    <contour>
      <point x="28" y="0" type="line" identifier="O9abUc1nmN"/>
      <point x="1049" y="0" type="line" identifier="kMJYMTfXCq"/>
      <point x="1049" y="769" type="line" identifier="su2XmdS8e8"/>
      <point x="934" y="805" type="line" identifier="JQaOzDQqlF"/>
      <point x="932" y="809" type="line"/>
      <point x="1025" y="915" type="line" identifier="S91TzLL02W"/>
      <point x="1025" y="1600" type="line" identifier="xg8x2Ki40p"/>
      <point x="31" y="1600" type="line" identifier="pE1XSRiy68"/>
      <point x="31" y="1346" type="line" identifier="5lNstGRcSF"/>
      <point x="435" y="1346" type="line" identifier="AcE5xKDZfE"/>
      <point x="435" y="1598" type="line" identifier="7ogBYufWpl"/>
      <point x="617" y="1598" type="line" identifier="RHLvSX2Jv6"/>
      <point x="617" y="903" type="line" identifier="YUjTrmoWd9"/>
      <point x="532" y="814" type="line"/>
      <point x="534" y="810" type="line" identifier="iic1IBkDqp"/>
      <point x="119" y="810" type="line" identifier="lRLJEhXMlO"/>
      <point x="119" y="808" type="line" identifier="8aKgEELrVU"/>
      <point x="645" y="808" type="line" identifier="Dm8zjmbhNr"/>
      <point x="645" y="2" type="line" identifier="xv9CFHiFgB"/>
      <point x="432" y="2" type="line" identifier="YajKQV3MHP"/>
      <point x="432" y="201" type="line" identifier="36SchVkwze"/>
      <point x="28" y="201" type="line" identifier="tVui9PiOjA"/>
    </contour>
  </outline>
</glyph>
<glyph name="four" format="2">
  <advance width="864"/>
  <unicode hex="0034"/>
  <outline>
    <contour>
      <point x="490" y="0" type="line"/>
      <point x="729" y="0" type="line"/>
      <point x="729" y="812" type="line"/>
      <point x="795" y="812" type="line"/>
      <point x="795" y="814" type="line"/>
      <point x="729" y="814" type="line"/>
      <point x="729" y="1600" type="line"/>
      <point x="490" y="1600" type="line"/>
      <point x="490" y="814" type="line"/>
      <point x="308" y="814" type="line"/>
      <point x="308" y="902" type="line"/>
      <point x="376" y="1680" type="line"/>
      <point x="143" y="1680" type="line"/>
      <point x="69" y="902" type="line"/>
      <point x="69" y="812" type="line"/>
      <point x="490" y="812" type="line"/>
    </contour>
  </outline>
</glyph>
<glyph name="six" format="2">
  <advance width="1085"/>
  <unicode hex="0036"/>
  <outline>
    <contour>
      <point x="38" y="0" type="line" identifier="uiw6aBUf4P"/>
      <point x="1057" y="0" type="line" identifier="jtYkxiUX6G"/>
      <point x="1057" y="801" type="line" identifier="2G5L37c87I"/>
      <point x="441" y="801" type="line"/>
      <point x="441" y="1388" type="line"/>
      <point x="508" y="1598" type="line"/>
      <point x="653" y="1598" type="line"/>
      <point x="653" y="1279" type="line"/>
      <point x="1056" y="1279" type="line" identifier="Wuidbv6mUe"/>
      <point x="1056" y="1600" type="line" identifier="oGvEEuxnYv"/>
      <point x="126" y="1600" type="line" identifier="xR3pEHbMJx"/>
      <point x="38" y="1389" type="line" identifier="KnMArb0tv8"/>
    </contour>
    <contour>
      <point x="653" y="799" type="line"/>
      <point x="653" y="2" type="line"/>
      <point x="441" y="2" type="line"/>
      <point x="441" y="799" type="line"/>
    </contour>
  </outline>
</glyph>
<glyph name="eight" format="2">
  <advance width="1111"/>
  <unicode hex="0038"/>
  <outline>
    <contour>
      <point x="622" y="799" type="line"/>
      <point x="670" y="745" type="line"/>
      <point x="670" y="2" type="line"/>
      <point x="441" y="2" type="line"/>
      <point x="441" y="745" type="line"/>
      <point x="490" y="799" type="line"/>
    </contour>
    <contour>
      <point x="972" y="799" type="line"/>
      <point x="972" y="801" type="line"/>
      <point x="1070" y="940" type="line"/>
      <point x="1070" y="1600" type="line"/>
      <point x="41" y="1600" type="line"/>
      <point x="41" y="940" type="line"/>
      <point x="139" y="801" type="line"/>
      <point x="139" y="799" type="line"/>
      <point x="38" y="657" type="line"/>
      <point x="38" y="0" type="line"/>
      <point x="1074" y="0" type="line"/>
      <point x="1074" y="657" type="line"/>
    </contour>
    <contour>
      <point x="490" y="801" type="line"/>
      <point x="445" y="852" type="line"/>
      <point x="445" y="1598" type="line"/>
      <point x="666" y="1598" type="line"/>
      <point x="666" y="852" type="line"/>
      <point x="622" y="801" type="line"/>
    </contour>
  </outline>
</glyph>
<glyph name="B" format="2">
  <advance width="842"/>
  <unicode hex="0042"/>
  <outline>
    <contour>
      <point x="80" y="0" type="line" identifier="hvY9r8RmLr"/>
      <point x="772" y="0" type="line" identifier="9QFpw7nfq7"/>
      <point x="772" y="701" type="line" identifier="543PerILpr"/>
      <point x="699" y="799" type="line" identifier="zhomauHW30"/>
      <point x="699" y="801" type="line" identifier="870ZhtaozS"/>
      <point x="766" y="903" type="line" identifier="eGKH52Jgnk"/>
      <point x="766" y="1600" type="line" identifier="FaP204GrdB"/>
      <point x="80" y="1600" type="line" identifier="JEev70GAj6"/>
    </contour>
    <contour>
      <point x="319" y="801" type="line" identifier="By7dfMihfe"/>
      <point x="319" y="1598" type="line" identifier="1p5hKrurVy"/>
      <point x="527" y="1598" type="line" identifier="Qby8aMtF2X"/>
      <point x="527" y="858" type="line" identifier="9lW01gQyU2"/>
      <point x="485" y="801" type="line" identifier="xpxyvIzPoc"/>
    </contour>
    <contour>
      <point x="319" y="2" type="line" identifier="jaMSiLrCua"/>
      <point x="319" y="799" type="line" identifier="XSrxNd2axx"/>
      <point x="485" y="799" type="line" identifier="VyYlzRh5nq"/>
      <point x="533" y="747" type="line" identifier="lsRGatjQja"/>
      <point x="533" y="2" type="line" identifier="xhlDJ3CjD5"/>
    </contour>
  </outline>
</glyph>
<glyph name="C" format="2">
  <advance width="1081"/>
  <unicode hex="0043"/>
  <outline>
    <contour>
      <point x="38" y="0" type="line" identifier="7lPhzTnk2Z"/>
      <point x="1051" y="0" type="line" identifier="qJVLZGnkwh"/>
      <point x="1051" y="369" type="line" identifier="nDnDHzAMXL"/>
      <point x="647" y="369" type="line" identifier="QX1V08aTu0"/>
      <point x="647" y="2" type="line" identifier="Y750RHTvDj"/>
      <point x="441" y="2" type="line" identifier="L2LsGnXiZ2"/>
      <point x="441" y="1267" type="line" identifier="sUWsr03vF4"/>
      <point x="519" y="1598" type="line" identifier="dbOUe6OhxL"/>
      <point x="649" y="1598" type="line" identifier="5BjRbcud80"/>
      <point x="649" y="1092" type="line" identifier="fNVDqwQo2o"/>
      <point x="1053" y="1092" type="line" identifier="wLqQQx7QVN"/>
      <point x="1053" y="1600" type="line" identifier="9eJelv8BOw"/>
      <point x="147" y="1600" type="line" identifier="lfZev3ICaC"/>
      <point x="38" y="1291" type="line" identifier="V1EWIdPahq"/>
    </contour>
  </outline>
</glyph>
<glyph name="M" format="2">
  <advance width="1751"/>
  <unicode hex="004D"/>
  <outline>
    <contour>
      <point x="538" y="183" type="line" identifier="0Dn4Xpf57M"/>
      <point x="440" y="1598" type="line"/>
      <point x="410" y="1598" type="line"/>
      <point x="410" y="0" type="line"/>
      <point x="51" y="0" type="line"/>
      <point x="51" y="1600" type="line"/>
      <point x="770" y="1600" type="line"/>
      <point x="855" y="185" type="line"/>
      <point x="896" y="185" type="line" identifier="9aKZPM0HPh"/>
      <point x="981" y="1600" type="line"/>
      <point x="1700" y="1600" type="line"/>
      <point x="1700" y="0" type="line"/>
      <point x="1340" y="0" type="line"/>
      <point x="1340" y="1598" type="line"/>
      <point x="1311" y="1598" type="line"/>
      <point x="1213" y="183" type="line" identifier="spdoeeCFft"/>
    </contour>
  </outline>
</glyph>
<glyph name="S" format="2">
  <advance width="782"/>
  <unicode hex="0053"/>
  <outline>
    <contour>
      <point x="61" y="0" type="line" identifier="09VlJ0BjUX"/>
      <point x="719" y="0" type="line" identifier="EagWihqFM8"/>
      <point x="719" y="801" type="line" identifier="KfNuQA7eZe"/>
      <point x="297" y="801" type="line" identifier="At364YZFEy"/>
      <point x="297" y="1285" type="line"/>
      <point x="358" y="1598" type="line"/>
      <point x="482" y="1598" type="line" identifier="3ZUkG35meB"/>
      <point x="482" y="1163" type="line" identifier="DTOJhFIl15"/>
      <point x="721" y="1163" type="line" identifier="9KDcrfQ5Ui"/>
      <point x="721" y="1600" type="line" identifier="SaF9ojRFrW"/>
      <point x="148" y="1600" type="line"/>
      <point x="60" y="1301" type="line"/>
      <point x="60" y="799" type="line" identifier="3sQ8t8BZ6b"/>
      <point x="479" y="799" type="line" identifier="yiV6OCBLHg"/>
      <point x="479" y="2" type="line" identifier="9kdl9SYsn8"/>
      <point x="300" y="2" type="line" identifier="yZDWuX8LLe"/>
      <point x="300" y="366" type="line" identifier="jYb9001DTm"/>
      <point x="61" y="366" type="line" identifier="ho4DrS0rdW"/>
    </contour>
  </outline>
</glyph>
<glyph name="U" format="2">
  <advance width="1208"/>
  <unicode hex="0055"/>
  <outline>
    <contour>
      <point x="702" y="1600" type="line" smooth="yes"/>
      <point x="702" y="2" type="line"/>
      <point x="583" y="2" type="line" smooth="yes"/>
      <point x="491" y="330" type="line" smooth="yes"/>
      <point x="491" y="1600" type="line"/>
      <point x="88" y="1600" type="line" smooth="yes"/>
      <point x="88" y="317" type="line" smooth="yes"/>
      <point x="246" y="0" type="line" smooth="yes"/>
      <point x="1105" y="0" type="line" smooth="yes"/>
      <point x="1105" y="1600" type="line" smooth="yes"/>
    </contour>
  </outline>
</glyph>
<glyph name="X" format="2">
  <advance width="844"/>
  <unicode hex="0058"/>
  <outline>
    <contour>
      <point x="483" y="799" type="line"/>
      <point x="535" y="745" type="line"/>
      <point x="535" y="0" type="line"/>
      <point x="774" y="0" type="line"/>
      <point x="774" y="693" type="line"/>
      <point x="695" y="799" type="line"/>
      <point x="695" y="801" type="line"/>
      <point x="770" y="904" type="line"/>
      <point x="770" y="1600" type="line"/>
      <point x="531" y="1600" type="line"/>
      <point x="531" y="852" type="line"/>
      <point x="483" y="801" type="line"/>
      <point x="362" y="801" type="line"/>
      <point x="313" y="852" type="line"/>
      <point x="313" y="1600" type="line"/>
      <point x="74" y="1600" type="line"/>
      <point x="74" y="904" type="line"/>
      <point x="149" y="801" type="line"/>
      <point x="149" y="799" type="line"/>
      <point x="70" y="693" type="line"/>
      <point x="70" y="0" type="line"/>
      <point x="309" y="0" type="line"/>
      <point x="309" y="745" type="line"/>
      <point x="362" y="799" type="line"/>
    </contour>
  </outline>
</glyph>
<glyph name="Z" format="2">
  <advance width="1174"/>
  <unicode hex="005A"/>
  <outline>
    <contour>
      <point x="78" y="0" type="line"/>
      <point x="1096" y="0" type="line" identifier="pzdvPTirLJ"/>
      <point x="1096" y="169" type="line" identifier="91SxUS0iwG"/>
      <point x="692" y="169" type="line"/>
      <point x="692" y="2" type="line"/>
      <point x="482" y="2" type="line"/>
      <point x="482" y="238" type="line"/>
      <point x="1091" y="1571" type="line" identifier="yyb1NCCI5w"/>
      <point x="1091" y="1600" type="line" identifier="5FogYRSgkk"/>
      <point x="82" y="1600" type="line" identifier="svlFvrau4c"/>
      <point x="82" y="1428" type="line" identifier="LQ9fBsTy9K"/>
      <point x="445" y="1428" type="line"/>
      <point x="445" y="1598" type="line"/>
      <point x="688" y="1598" type="line"/>
      <point x="688" y="1573" type="line"/>
      <point x="78" y="243" type="line" identifier="teVKnpBcVb"/>
    </contour>
  </outline>
</glyph>
<glyph name="B.narrow" format="2">
  <advance width="842"/>
  <outline>
    <contour>
      <point x="80" y="0" type="line" identifier="hvY9r8RmLr"/>
      <point x="772" y="0" type="line" identifier="9QFpw7nfq7"/>
      <point x="772" y="752" type="line" identifier="543PerILpr"/>
      <point x="683" y="857" type="line" identifier="870ZhtaozS"/>
      <point x="766" y="900" type="line" identifier="eGKH52Jgnk"/>
      <point x="766" y="1600" type="line" identifier="FaP204GrdB"/>
      <point x="80" y="1600" type="line" identifier="JEev70GAj6"/>
    </contour>
    <contour>
      <point x="319" y="784" type="line" identifier="By7dfMihfe"/>
      <point x="319" y="1598" type="line" identifier="1p5hKrurVy"/>
      <point x="527" y="1598" type="line" identifier="Qby8aMtF2X"/>
      <point x="527" y="838" type="line" identifier="9lW01gQyU2"/>
    </contour>
    <contour>
      <point x="319" y="2" type="line" identifier="jaMSiLrCua"/>
      <point x="319" y="782" type="line" identifier="XSrxNd2axx"/>
      <point x="482" y="816" type="line" identifier="VyYlzRh5nq"/>
      <point x="532" y="766" type="line" identifier="lsRGatjQja"/>
      <point x="532" y="2" type="line" identifier="xhlDJ3CjD5"/>
    </contour>
  </outline>
</glyph>
<glyph name="C.wide" format="2">
  <advance width="1219"/>
  <outline>
    <contour>
      <point x="118" y="0" type="line" identifier="7lPhzTnk2Z"/>
      <point x="1136" y="0" type="line" identifier="qJVLZGnkwh"/>
      <point x="1136" y="2" type="line" identifier="Y750RHTvDj"/>
      <point x="522" y="2" type="line" identifier="L2LsGnXiZ2"/>
      <point x="522" y="1267" type="line" identifier="sUWsr03vF4"/>
      <point x="600" y="1598" type="line" identifier="dbOUe6OhxL"/>
      <point x="1135" y="1598" type="line" identifier="5BjRbcud80"/>
      <point x="1135" y="1600" type="line" identifier="9eJelv8BOw"/>
      <point x="227" y="1600" type="line" identifier="lfZev3ICaC"/>
      <point x="118" y="1291" type="line" identifier="V1EWIdPahq"/>
    </contour>
  </outline>
</glyph>
<glyph name="E.wide" format="2">
  <advance width="626"/>
  <outline>
    <contour>
      <point x="56" y="0" type="line" identifier="fZynkQ4XHB"/>
      <point x="589" y="0" type="line" identifier="FAQNpgUPxV"/>
      <point x="589" y="2" type="line" identifier="5cgTYOhATF"/>
      <point x="295" y="2" type="line" identifier="bWs42DaCgU"/>
      <point x="295" y="799" type="line" identifier="VtD2aADJmn"/>
      <point x="553" y="799" type="line" identifier="PpbsFdHAnS"/>
      <point x="553" y="801" type="line" identifier="8WuC5p8Ax5"/>
      <point x="295" y="801" type="line" identifier="m39IWn9ntA"/>
      <point x="295" y="1598" type="line" identifier="gQ21I4SHQg"/>
      <point x="588" y="1598" type="line" identifier="eqNb2VTwYs"/>
      <point x="588" y="1600" type="line" identifier="qYRmo14Il5"/>
      <point x="56" y="1600" type="line" identifier="HmJIcnLWfC"/>
    </contour>
  </outline>
</glyph>
<glyph name="G.wide" format="2">
  <advance width="1113"/>
  <outline>
    <contour>
      <point x="38" y="0" type="line" identifier="7lPhzTnk2Z"/>
      <point x="1056" y="0" type="line" identifier="qJVLZGnkwh"/>
      <point x="1056" y="783" type="line" identifier="uek1NNj7De"/>
      <point x="541" y="783" type="line" identifier="qcvimxjndX"/>
      <point x="541" y="781" type="line" identifier="EARaY3Su65"/>
      <point x="655" y="781" type="line" identifier="4m6dHLVhZq"/>
      <point x="655" y="2" type="line" identifier="Y750RHTvDj"/>
      <point x="441" y="2" type="line" identifier="L2LsGnXiZ2"/>
      <point x="441" y="1263" type="line" identifier="sUWsr03vF4"/>
      <point x="510" y="1598" type="line" identifier="dbOUe6OhxL"/>
      <point x="1055" y="1598" type="line" identifier="5BjRbcud80"/>
      <point x="1055" y="1600" type="line" identifier="9eJelv8BOw"/>
      <point x="120" y="1600" type="line" identifier="lfZev3ICaC"/>
      <point x="38" y="1273" type="line" identifier="V1EWIdPahq"/>
    </contour>
  </outline>
</glyph>
<glyph name="K.alt" format="2">
  <advance width="1271"/>
  <outline>
    <contour>
      <point x="532" y="0" type="line" identifier="wmNm7XZsaF"/>
      <point x="532" y="799" type="line" identifier="O22liaP9Qk"/>
      <point x="690" y="799" type="line" identifier="ELFBWIb1vd"/>
      <point x="746" y="758" type="line" identifier="DzXo67YEfw"/>
      <point x="746" y="0" type="line" identifier="aKpYWD78l2"/>
      <point x="1150" y="0" type="line" identifier="ChS7KlqGi6"/>
      <point x="1150" y="712" type="line" identifier="sWLgkU8Vey"/>
      <point x="1046" y="800" type="line" identifier="Of0iQc0wBG"/>
      <point x="1145" y="1600" type="line" identifier="dMJ1ywOKQQ"/>
      <point x="745" y="1600" type="line" identifier="08OWjR2YBJ"/>
      <point x="686" y="801" type="line" identifier="g4YLdZEoM3"/>
      <point x="532" y="801" type="line" identifier="uZuki3Isec"/>
      <point x="532" y="1600" type="line" identifier="nRfcNgqJ4H"/>
      <point x="128" y="1600" type="line" identifier="3XJlWt89ad"/>
      <point x="128" y="0" type="line" identifier="wdbO8kCovY"/>
    </contour>
  </outline>
</glyph>
<glyph name="K.narrow" format="2">
  <advance width="853"/>
  <outline>
    <contour>
      <point x="319" y="0" type="line"/>
      <point x="319" y="805" type="line"/>
      <point x="480" y="867" type="line"/>
      <point x="556" y="0" type="line"/>
      <point x="785" y="0" type="line"/>
      <point x="688" y="853" type="line"/>
      <point x="760" y="890" type="line"/>
      <point x="760" y="1600" type="line"/>
      <point x="521" y="1600" type="line"/>
      <point x="521" y="901" type="line"/>
      <point x="319" y="807" type="line"/>
      <point x="319" y="1600" type="line"/>
      <point x="80" y="1600" type="line"/>
      <point x="80" y="0" type="line"/>
    </contour>
  </outline>
</glyph>
<glyph name="L.wide" format="2">
  <advance width="1190"/>
  <outline>
    <contour>
      <point x="111" y="0" type="line" identifier="XkJNfQlnnt"/>
      <point x="1104" y="0" type="line" identifier="82EXZEgt46"/>
      <point x="1104" y="2" type="line" identifier="cqpSxwFiM3"/>
      <point x="515" y="2" type="line" identifier="MbxRZRd8vz"/>
      <point x="515" y="1600" type="line" identifier="lYiaKSKITt"/>
      <point x="111" y="1600" type="line" identifier="XFf4mMUzYo"/>
    </contour>
  </outline>
</glyph>
<glyph name="N.narrow" format="2">
  <advance width="846"/>
  <outline>
    <contour>
      <point x="96" y="0" type="line" smooth="yes"/>
      <point x="335" y="0" type="line"/>
      <point x="335" y="1448" type="line"/>
      <point x="389" y="1598" type="line"/>
      <point x="509" y="1598" type="line"/>
      <point x="509" y="0" type="line" smooth="yes"/>
      <point x="749" y="0" type="line" smooth="yes"/>
      <point x="749" y="1600" type="line" smooth="yes"/>
      <point x="377" y="1600" type="line" smooth="yes"/>
      <point x="337" y="1503" type="line"/>
      <point x="332" y="1503" type="line"/>
      <point x="332" y="1600" type="line"/>
      <point x="96" y="1600" type="line"/>
    </contour>
  </outline>
</glyph>
<glyph name="R.alt" format="2">
  <advance width="914"/>
  <outline>
    <contour>
      <point x="351" y="801" type="line"/>
      <point x="351" y="1598" type="line"/>
      <point x="564" y="1598" type="line"/>
      <point x="564" y="801" type="line"/>
    </contour>
    <contour>
      <point x="812" y="0" type="line"/>
      <point x="727" y="800" type="line"/>
      <point x="803" y="800" type="line"/>
      <point x="803" y="1600" type="line"/>
      <point x="112" y="1600" type="line"/>
      <point x="112" y="0" type="line"/>
      <point x="351" y="0" type="line"/>
      <point x="351" y="799" type="line"/>
      <point x="519" y="798" type="line"/>
      <point x="594" y="0" type="line"/>
    </contour>
  </outline>
</glyph>
<glyph name="S.alt" format="2">
  <advance width="1073"/>
  <outline>
    <contour>
      <point x="54" y="0" type="line" identifier="09VlJ0BjUX"/>
      <point x="1018" y="0" type="line" identifier="EagWihqFM8"/>
      <point x="1018" y="801" type="line" identifier="KfNuQA7eZe"/>
      <point x="408" y="801" type="line" identifier="At364YZFEy"/>
      <point x="408" y="1284" type="line"/>
      <point x="470" y="1598" type="line"/>
      <point x="613" y="1598" type="line" identifier="3ZUkG35meB"/>
      <point x="613" y="1308" type="line" identifier="DTOJhFIl15"/>
      <point x="1018" y="1308" type="line" identifier="9KDcrfQ5Ui"/>
      <point x="1018" y="1600" type="line" identifier="SaF9ojRFrW"/>
      <point x="159" y="1600" type="line"/>
      <point x="52" y="1311" type="line"/>
      <point x="52" y="799" type="line" identifier="3sQ8t8BZ6b"/>
      <point x="613" y="799" type="line" identifier="yiV6OCBLHg"/>
      <point x="613" y="2" type="line" identifier="9kdl9SYsn8"/>
      <point x="446" y="2" type="line" identifier="yZDWuX8LLe"/>
      <point x="446" y="243" type="line" identifier="jYb9001DTm"/>
      <point x="54" y="243" type="line" identifier="ho4DrS0rdW"/>
    </contour>
  </outline>
</glyph>
<glyph name="S.wide" format="2">
  <advance width="748"/>
  <outline>
    <contour>
      <point x="60" y="0" type="line" identifier="09VlJ0BjUX"/>
      <point x="690" y="0" type="line" identifier="EagWihqFM8"/>
      <point x="690" y="801" type="line" identifier="KfNuQA7eZe"/>
      <point x="272" y="801" type="line" identifier="At364YZFEy"/>
      <point x="272" y="1286" type="line"/>
      <point x="330" y="1598" type="line"/>
      <point x="690" y="1598" type="line" identifier="3ZUkG35meB"/>
      <point x="690" y="1600" type="line" identifier="SaF9ojRFrW"/>
      <point x="146" y="1600" type="line"/>
      <point x="61" y="1302" type="line"/>
      <point x="61" y="799" type="line" identifier="3sQ8t8BZ6b"/>
      <point x="450" y="799" type="line" identifier="yiV6OCBLHg"/>
      <point x="450" y="2" type="line" identifier="9kdl9SYsn8"/>
      <point x="60" y="2" type="line" identifier="yZDWuX8LLe"/>
    </contour>
  </outline>
</glyph>
<glyph name="Y.alt" format="2">
  <advance width="829"/>
  <outline>
    <contour>
      <point x="69" y="2" type="line"/>
      <point x="69" y="0" type="line"/>
      <point x="749" y="0" type="line" identifier="oOtn61SmRY"/>
      <point x="749" y="1600" type="line" identifier="8OglXgblhr"/>
      <point x="509" y="1600" type="line" identifier="db0bPhBdaU"/>
      <point x="509" y="801" type="line" identifier="MTAeavIVWY"/>
      <point x="305" y="801" type="line" identifier="lggLiivmLt"/>
      <point x="305" y="1600" type="line" identifier="UPaHY3UudR"/>
      <point x="65" y="1600" type="line" identifier="ZnCDQVdtyD"/>
      <point x="65" y="799" type="line" identifier="uqAJBjDIOT"/>
      <point x="509" y="799" type="line" identifier="7JgTtdb0jg"/>
      <point x="509" y="2" type="line"/>
    </contour>
  </outline>
</glyph>
<glyph name="Z.wide" format="2">
  <advance width="1174"/>
  <outline>
    <contour>
      <point x="78" y="0" type="line"/>
      <point x="1095" y="0" type="line" identifier="pzdvPTirLJ"/>
      <point x="1095" y="2" type="line"/>
      <point x="484" y="2" type="line"/>
      <point x="484" y="235" type="line"/>
      <point x="1091" y="1517" type="line" identifier="yyb1NCCI5w"/>
      <point x="1091" y="1600" type="line" identifier="5FogYRSgkk"/>
      <point x="82" y="1600" type="line" identifier="svlFvrau4c"/>
      <point x="82" y="1598" type="line"/>
      <point x="683" y="1598" type="line"/>
      <point x="683" y="1523" type="line"/>
      <point x="78" y="244" type="line" identifier="teVKnpBcVb"/>
    </contour>
  </outline>
</glyph>
<glyph name="five.wide" format="2">
  <advance width="1168"/>
  <outline>
    <contour>
      <point x="78" y="0" type="line" identifier="09VlJ0BjUX"/>
      <point x="1092" y="0" type="line" identifier="EagWihqFM8"/>
      <point x="1092" y="776" type="line" identifier="KfNuQA7eZe"/>
      <point x="480" y="805" type="line" identifier="At364YZFEy"/>
      <point x="480" y="1598" type="line" identifier="BcuLfvaQKC"/>
      <point x="1092" y="1598" type="line" identifier="3ZUkG35meB"/>
      <point x="1092" y="1600" type="line" identifier="SaF9ojRFrW"/>
      <point x="76" y="1600" type="line" identifier="F4sQEYelA8"/>
      <point x="76" y="813" type="line" identifier="3sQ8t8BZ6b"/>
      <point x="688" y="784" type="line" identifier="yiV6OCBLHg"/>
      <point x="688" y="2" type="line" identifier="9kdl9SYsn8"/>
      <point x="78" y="2" type="line" identifier="yZDWuX8LLe"/>
    </contour>
  </outline>
</glyph>
<glyph name="one.narrow" format="2">
  <advance width="533"/>
  <outline>
    <contour>
      <point x="462" y="0" type="line" identifier="5nmxQXofSG"/>
      <point x="462" y="1600" type="line" identifier="4rjIeWbSbx"/>
      <point x="52" y="1600" type="line"/>
      <point x="52" y="1598" type="line"/>
      <point x="223" y="1598" type="line"/>
      <point x="223" y="0" type="line"/>
    </contour>
  </outline>
</glyph>
<glyph name="six.wide" format="2">
  <advance width="1140"/>
  <outline>
    <contour>
      <point x="58" y="0" type="line" identifier="uiw6aBUf4P"/>
      <point x="1077" y="0" type="line" identifier="jtYkxiUX6G"/>
      <point x="1077" y="801" type="line" identifier="2G5L37c87I"/>
      <point x="462" y="801" type="line"/>
      <point x="462" y="1433" type="line"/>
      <point x="518" y="1598" type="line"/>
      <point x="1077" y="1598" type="line"/>
      <point x="1077" y="1600" type="line" identifier="oGvEEuxnYv"/>
      <point x="115" y="1600" type="line" identifier="xR3pEHbMJx"/>
      <point x="58" y="1434" type="line" identifier="KnMArb0tv8"/>
    </contour>
    <contour>
      <point x="673" y="799" type="line"/>
      <point x="673" y="2" type="line"/>
      <point x="462" y="2" type="line"/>
      <point x="462" y="799" type="line"/>
    </contour>
  </outline>
</glyph>
<glyph name="three.wide" format="2">
  <advance width="795"/>
  <outline>
    <contour>
      <point x="57" y="0" type="line" identifier="O9abUc1nmN"/>
      <point x="720" y="0" type="line" identifier="kMJYMTfXCq"/>
      <point x="720" y="810" type="line" identifier="su2XmdS8e8"/>
      <point x="623" y="810" type="line" identifier="JQaOzDQqlF"/>
      <point x="623" y="813" type="line"/>
      <point x="698" y="907" type="line" identifier="S91TzLL02W"/>
      <point x="698" y="1600" type="line" identifier="xg8x2Ki40p"/>
      <point x="59" y="1600" type="line" identifier="pE1XSRiy68"/>
      <point x="59" y="1598" type="line" identifier="7ogBYufWpl"/>
      <point x="457" y="1598" type="line" identifier="RHLvSX2Jv6"/>
      <point x="457" y="905" type="line" identifier="YUjTrmoWd9"/>
      <point x="386" y="814" type="line"/>
      <point x="386" y="810" type="line" identifier="iic1IBkDqp"/>
      <point x="120" y="810" type="line" identifier="lRLJEhXMlO"/>
      <point x="120" y="808" type="line" identifier="8aKgEELrVU"/>
      <point x="480" y="808" type="line" identifier="Dm8zjmbhNr"/>
      <point x="480" y="2" type="line" identifier="xv9CFHiFgB"/>
      <point x="57" y="2" type="line" identifier="YajKQV3MHP"/>
    </contour>
  </outline>
</glyph>
